<svg xmlns="http://www.w3.org/2000/svg" xmlns:xlink="http://www.w3.org/1999/xlink" width="500" zoomAndPan="magnify" viewBox="0 0 375 374.999991" height="500" preserveAspectRatio="xMidYMid meet" version="1.0"><defs><g/><clipPath id="f195e37ef2"><path d="M 69.921875 12.351562 L 305.078125 12.351562 L 305.078125 247.503906 L 69.921875 247.503906 Z M 69.921875 12.351562 " clip-rule="nonzero"/></clipPath><clipPath id="d19f645778"><path d="M 187.5 12.351562 C 122.5625 12.351562 69.921875 64.992188 69.921875 129.929688 C 69.921875 194.863281 122.5625 247.503906 187.5 247.503906 C 252.4375 247.503906 305.078125 194.863281 305.078125 129.929688 C 305.078125 64.992188 252.4375 12.351562 187.5 12.351562 Z M 187.5 12.351562 " clip-rule="nonzero"/></clipPath><clipPath id="03c4e4ef09"><path d="M 62.558594 4.988281 L 312.441406 4.988281 L 312.441406 254.871094 L 62.558594 254.871094 Z M 62.558594 4.988281 " clip-rule="nonzero"/></clipPath><clipPath id="1cabfb73da"><path d="M 94 48 L 258.371094 48 L 258.371094 213.53125 L 94 213.53125 Z M 94 48 " clip-rule="nonzero"/></clipPath></defs><g clip-path="url(#f195e37ef2)"><g clip-path="url(#d19f645778)"><path fill="#ffffff" d="M 69.921875 12.351562 L 305.078125 12.351562 L 305.078125 247.503906 L 69.921875 247.503906 Z M 69.921875 12.351562 " fill-opacity="1" fill-rule="nonzero"/></g></g><g clip-path="url(#03c4e4ef09)"><path fill="#000000" d="M 187.5 254.871094 C 118.472656 254.871094 62.558594 198.570312 62.558594 129.929688 C 62.558594 61.289062 118.472656 4.988281 187.5 4.988281 C 256.527344 4.988281 312.441406 60.902344 312.441406 129.929688 C 312.441406 198.957031 256.140625 254.871094 187.5 254.871094 Z M 187.5 12.699219 C 122.714844 12.699219 70.269531 65.144531 70.269531 129.929688 C 70.269531 194.714844 122.714844 247.160156 187.5 247.160156 C 252.285156 247.160156 304.730469 194.714844 304.730469 129.929688 C 304.730469 65.144531 251.898438 12.699219 187.5 12.699219 Z M 187.5 12.699219 " fill-opacity="1" fill-rule="nonzero"/></g><g clip-path="url(#1cabfb73da)"><path fill="#000000" d="M 211.699219 213.519531 C 211.15625 213.519531 210.621094 213.46875 210.089844 213.363281 C 209.558594 213.253906 209.042969 213.097656 208.542969 212.890625 C 208.042969 212.683594 207.566406 212.429688 207.117188 212.125 C 206.667969 211.824219 206.25 211.480469 205.867188 211.097656 C 205.484375 210.714844 205.140625 210.296875 204.839844 209.84375 C 204.539062 209.394531 204.285156 208.917969 204.078125 208.414062 C 203.871094 207.914062 203.714844 207.398438 203.609375 206.863281 C 203.503906 206.332031 203.453125 205.792969 203.453125 205.25 L 203.453125 183.75 C 203.578125 182.511719 203.578125 181.277344 203.449219 180.039062 C 203.316406 178.804688 203.058594 177.59375 202.675781 176.414062 C 202.292969 175.230469 201.792969 174.101562 201.171875 173.023438 C 200.550781 171.949219 199.828125 170.945312 199 170.023438 C 198.484375 169.464844 198.058594 168.847656 197.714844 168.171875 C 197.371094 167.492188 197.125 166.78125 196.976562 166.039062 C 196.828125 165.292969 196.78125 164.542969 196.839844 163.785156 C 196.898438 163.027344 197.054688 162.292969 197.316406 161.578125 C 197.574219 160.867188 197.925781 160.203125 198.367188 159.585938 C 198.8125 158.96875 199.328125 158.425781 199.921875 157.949219 C 200.511719 157.476562 201.15625 157.09375 201.855469 156.796875 C 202.554688 156.503906 203.277344 156.308594 204.027344 156.210938 C 224.148438 153.816406 242.703125 147.363281 242.703125 112.382812 C 242.707031 109.117188 242.238281 105.921875 241.296875 102.796875 C 240.355469 99.667969 238.984375 96.746094 237.179688 94.027344 C 236.355469 92.785156 235.65625 91.480469 235.089844 90.101562 C 234.519531 88.726562 234.09375 87.304688 233.800781 85.84375 C 233.511719 84.382812 233.367188 82.910156 233.367188 81.417969 C 233.363281 79.929688 233.507812 78.453125 233.796875 76.992188 C 234.546875 73.105469 234.546875 69.21875 233.796875 65.332031 C 227.585938 67.4375 221.839844 70.441406 216.5625 74.34375 C 215.558594 75.058594 214.449219 75.527344 213.238281 75.742188 C 212.027344 75.960938 210.824219 75.90625 209.636719 75.585938 C 205.933594 74.535156 202.175781 73.746094 198.367188 73.21875 C 194.554688 72.6875 190.722656 72.421875 186.875 72.421875 C 183.027344 72.421875 179.199219 72.6875 175.386719 73.21875 C 171.578125 73.746094 167.820312 74.535156 164.117188 75.585938 C 162.929688 75.90625 161.726562 75.960938 160.515625 75.742188 C 159.304688 75.527344 158.195312 75.058594 157.191406 74.34375 C 151.878906 70.394531 146.078125 67.390625 139.792969 65.332031 C 139 69.21875 139 73.105469 139.792969 76.992188 C 140.058594 78.472656 140.183594 79.964844 140.164062 81.46875 C 140.148438 82.972656 139.984375 84.460938 139.683594 85.9375 C 139.378906 87.410156 138.9375 88.839844 138.359375 90.230469 C 137.78125 91.617188 137.078125 92.9375 136.246094 94.191406 C 134.449219 96.929688 133.082031 99.867188 132.140625 103.007812 C 131.199219 106.148438 130.726562 109.355469 130.722656 112.632812 C 130.722656 144.800781 146.222656 153.402344 169.476562 156.378906 C 170.238281 156.472656 170.972656 156.671875 171.675781 156.96875 C 172.382812 157.269531 173.035156 157.660156 173.632812 158.144531 C 174.230469 158.625 174.75 159.179688 175.191406 159.808594 C 175.636719 160.433594 175.984375 161.109375 176.238281 161.835938 C 176.480469 162.539062 176.621094 163.261719 176.667969 164.003906 C 176.710938 164.746094 176.660156 165.480469 176.507812 166.210938 C 176.355469 166.9375 176.109375 167.632812 175.769531 168.292969 C 175.429688 168.953125 175.007812 169.558594 174.507812 170.105469 C 173.707031 170.964844 173 171.898438 172.390625 172.90625 C 171.78125 173.910156 171.28125 174.96875 170.890625 176.078125 C 170.5 177.1875 170.230469 178.328125 170.074219 179.496094 C 169.917969 180.660156 169.886719 181.832031 169.972656 183.007812 L 169.972656 205.25 C 169.972656 205.792969 169.917969 206.332031 169.8125 206.863281 C 169.707031 207.398438 169.550781 207.914062 169.34375 208.414062 C 169.136719 208.917969 168.882812 209.394531 168.582031 209.84375 C 168.28125 210.296875 167.941406 210.714844 167.558594 211.097656 C 167.175781 211.480469 166.757812 211.824219 166.308594 212.125 C 165.855469 212.429688 165.382812 212.683594 164.882812 212.890625 C 164.382812 213.097656 163.867188 213.253906 163.335938 213.363281 C 162.804688 213.46875 162.269531 213.519531 161.726562 213.519531 C 161.183594 213.519531 160.648438 213.46875 160.117188 213.363281 C 159.585938 213.253906 159.070312 213.097656 158.570312 212.890625 C 158.070312 212.683594 157.59375 212.429688 157.144531 212.125 C 156.695312 211.824219 156.277344 211.480469 155.894531 211.097656 C 155.511719 210.714844 155.171875 210.296875 154.871094 209.84375 C 154.570312 209.394531 154.316406 208.917969 154.109375 208.414062 C 153.902344 207.914062 153.742188 207.398438 153.636719 206.863281 C 153.53125 206.332031 153.480469 205.792969 153.480469 205.25 L 153.480469 200.539062 C 151.460938 200.769531 149.4375 200.878906 147.40625 200.859375 C 145.375 200.84375 143.351562 200.699219 141.339844 200.433594 C 139.324219 200.167969 137.335938 199.777344 135.367188 199.261719 C 133.402344 198.75 131.476562 198.117188 129.585938 197.367188 C 127.699219 196.617188 125.863281 195.753906 124.082031 194.773438 C 122.300781 193.796875 120.585938 192.714844 118.933594 191.523438 C 117.285156 190.335938 115.714844 189.046875 114.226562 187.664062 C 112.734375 186.28125 111.332031 184.8125 110.023438 183.253906 C 107.292969 180.222656 104.105469 177.796875 100.457031 175.976562 C 99.933594 175.839844 99.425781 175.65625 98.9375 175.417969 C 98.445312 175.183594 97.984375 174.902344 97.550781 174.574219 C 97.117188 174.25 96.722656 173.882812 96.359375 173.476562 C 95.996094 173.070312 95.679688 172.632812 95.402344 172.167969 C 95.128906 171.699219 94.898438 171.207031 94.71875 170.691406 C 94.542969 170.179688 94.414062 169.652344 94.335938 169.113281 C 94.261719 168.578125 94.238281 168.035156 94.269531 167.492188 C 94.300781 166.949219 94.382812 166.414062 94.515625 165.886719 C 94.652344 165.359375 94.839844 164.851562 95.074219 164.363281 C 95.308594 163.871094 95.589844 163.410156 95.914062 162.972656 C 96.242188 162.539062 96.605469 162.140625 97.011719 161.777344 C 97.417969 161.417969 97.851562 161.097656 98.320312 160.820312 C 98.785156 160.542969 99.277344 160.316406 99.789062 160.136719 C 100.300781 159.957031 100.824219 159.828125 101.363281 159.753906 C 101.898438 159.675781 102.4375 159.652344 102.980469 159.683594 C 103.523438 159.714844 104.054688 159.796875 104.582031 159.933594 C 107.753906 161.09375 110.734375 162.625 113.523438 164.527344 C 116.316406 166.429688 118.832031 168.648438 121.074219 171.179688 C 129.320312 179.449219 137.566406 186.726562 153.234375 183.75 C 152.953125 179.261719 153.585938 174.90625 155.128906 170.683594 C 138.140625 166.382812 113.898438 154.144531 113.898438 112.796875 C 113.886719 107.902344 114.585938 103.105469 115.988281 98.417969 C 117.394531 93.726562 119.445312 89.339844 122.144531 85.261719 C 122.644531 84.507812 122.988281 83.6875 123.175781 82.800781 C 123.359375 81.914062 123.375 81.027344 123.214844 80.132812 C 122.382812 75.671875 122.199219 71.179688 122.660156 66.664062 C 123.125 62.148438 124.214844 57.789062 125.9375 53.589844 C 126.410156 52.453125 127.101562 51.476562 128.011719 50.652344 C 128.921875 49.828125 129.960938 49.234375 131.132812 48.875 C 133.9375 48.046875 143.996094 46.394531 163.046875 58.796875 C 170.753906 56.9375 178.574219 56.007812 186.503906 56.007812 C 194.4375 56.007812 202.257812 56.9375 209.964844 58.796875 C 229.015625 46.394531 239.074219 47.964844 241.796875 48.875 C 242.96875 49.234375 244.007812 49.828125 244.917969 50.652344 C 245.828125 51.476562 246.519531 52.453125 246.992188 53.589844 C 248.714844 57.800781 249.808594 62.175781 250.273438 66.703125 C 250.734375 71.234375 250.550781 75.738281 249.710938 80.214844 C 249.542969 81.03125 249.535156 81.847656 249.691406 82.664062 C 249.851562 83.480469 250.160156 84.238281 250.621094 84.929688 C 253.328125 89.023438 255.382812 93.421875 256.785156 98.125 C 258.191406 102.832031 258.882812 107.640625 258.867188 112.550781 C 258.867188 154.476562 234.785156 166.632812 217.636719 170.4375 C 219.160156 174.917969 219.765625 179.519531 219.449219 184.246094 L 219.449219 205.25 C 219.449219 205.773438 219.402344 206.292969 219.304688 206.804688 C 219.207031 207.320312 219.0625 207.820312 218.871094 208.304688 C 218.679688 208.792969 218.445312 209.253906 218.164062 209.695312 C 217.886719 210.136719 217.566406 210.546875 217.210938 210.929688 C 216.855469 211.308594 216.464844 211.65625 216.042969 211.960938 C 215.621094 212.269531 215.171875 212.53125 214.703125 212.753906 C 214.230469 212.976562 213.742188 213.152344 213.234375 213.28125 C 212.730469 213.410156 212.21875 213.488281 211.699219 213.519531 Z M 211.699219 213.519531 " fill-opacity="1" fill-rule="nonzero"/></g><g fill="#ff00ff" fill-opacity="1"><g transform="translate(53.266982, 303.302968)"><g><path d="M 2.8125 -38.578125 L 16.875 -38.578125 C 20.8125 -38.578125 23.992188 -37.5625 26.421875 -35.53125 C 28.847656 -33.507812 30.0625 -30.566406 30.0625 -26.703125 C 30.0625 -22.835938 28.832031 -19.804688 26.375 -17.609375 C 23.914062 -15.410156 20.75 -14.3125 16.875 -14.3125 L 11.59375 -14.3125 L 11.59375 0 L 2.8125 0 Z M 11.59375 -21.328125 L 14.078125 -21.328125 C 16.035156 -21.328125 17.644531 -21.722656 18.90625 -22.515625 C 20.175781 -23.304688 20.8125 -24.609375 20.8125 -26.421875 C 20.8125 -28.265625 20.175781 -29.582031 18.90625 -30.375 C 17.644531 -31.164062 16.035156 -31.5625 14.078125 -31.5625 L 11.59375 -31.5625 Z M 11.59375 -21.328125 "/></g></g></g><g fill="#ff00ff" fill-opacity="1"><g transform="translate(84.415463, 303.302968)"><g><path d="M 2.8125 0 L 2.8125 -40.21875 L 11.078125 -40.21875 L 11.078125 0 Z M 2.8125 0 "/></g></g></g><g fill="#ff00ff" fill-opacity="1"><g transform="translate(98.306003, 303.302968)"><g><path d="M 27.078125 -10.84375 L 9.6875 -10.84375 C 9.6875 -9.164062 10.226562 -7.921875 11.3125 -7.109375 C 12.40625 -6.296875 13.59375 -5.890625 14.875 -5.890625 C 16.207031 -5.890625 17.265625 -6.066406 18.046875 -6.421875 C 18.828125 -6.785156 19.71875 -7.5 20.71875 -8.5625 L 26.703125 -5.5625 C 24.210938 -1.382812 20.066406 0.703125 14.265625 0.703125 C 10.648438 0.703125 7.546875 -0.535156 4.953125 -3.015625 C 2.367188 -5.492188 1.078125 -8.476562 1.078125 -11.96875 C 1.078125 -15.457031 2.367188 -18.445312 4.953125 -20.9375 C 7.546875 -23.4375 10.648438 -24.6875 14.265625 -24.6875 C 18.066406 -24.6875 21.160156 -23.585938 23.546875 -21.390625 C 25.929688 -19.191406 27.125 -16.050781 27.125 -11.96875 C 27.125 -11.40625 27.109375 -11.03125 27.078125 -10.84375 Z M 9.921875 -15.4375 L 19.03125 -15.4375 C 18.84375 -16.675781 18.351562 -17.628906 17.5625 -18.296875 C 16.769531 -18.972656 15.75 -19.3125 14.5 -19.3125 C 13.125 -19.3125 12.03125 -18.953125 11.21875 -18.234375 C 10.414062 -17.515625 9.984375 -16.582031 9.921875 -15.4375 Z M 9.921875 -15.4375 "/></g></g></g><g fill="#ff00ff" fill-opacity="1"><g transform="translate(126.508008, 303.302968)"><g><path d="M 4.4375 -2.96875 C 2.195312 -5.414062 1.078125 -8.414062 1.078125 -11.96875 C 1.078125 -15.519531 2.195312 -18.523438 4.4375 -20.984375 C 6.6875 -23.453125 9.539062 -24.6875 13 -24.6875 C 16.175781 -24.6875 18.796875 -23.691406 20.859375 -21.703125 L 20.859375 -23.984375 L 29.140625 -23.984375 L 29.140625 0 L 20.953125 0 L 20.953125 -2.71875 L 20.859375 -2.71875 C 18.796875 -0.4375 16.175781 0.703125 13 0.703125 C 9.539062 0.703125 6.6875 -0.519531 4.4375 -2.96875 Z M 11.484375 -16.03125 C 10.410156 -14.976562 9.875 -13.625 9.875 -11.96875 C 9.875 -10.320312 10.382812 -8.972656 11.40625 -7.921875 C 12.4375 -6.878906 13.796875 -6.359375 15.484375 -6.359375 C 17.097656 -6.359375 18.425781 -6.890625 19.46875 -7.953125 C 20.519531 -9.015625 21.046875 -10.351562 21.046875 -11.96875 C 21.046875 -13.625 20.503906 -14.976562 19.421875 -16.03125 C 18.347656 -17.09375 17.035156 -17.625 15.484375 -17.625 C 13.890625 -17.625 12.554688 -17.09375 11.484375 -16.03125 Z M 11.484375 -16.03125 "/></g></g></g><g fill="#ff00ff" fill-opacity="1"><g transform="translate(158.45158, 303.302968)"><g><path d="M 13.234375 -24.6875 C 14.609375 -24.6875 15.960938 -24.53125 17.296875 -24.21875 C 18.640625 -23.90625 19.640625 -23.597656 20.296875 -23.296875 L 21.28125 -22.828125 L 18.5625 -17.390625 C 16.695312 -18.390625 14.921875 -18.890625 13.234375 -18.890625 C 12.296875 -18.890625 11.628906 -18.785156 11.234375 -18.578125 C 10.847656 -18.378906 10.65625 -18 10.65625 -17.4375 C 10.65625 -17.3125 10.671875 -17.1875 10.703125 -17.0625 C 10.734375 -16.9375 10.796875 -16.820312 10.890625 -16.71875 C 10.984375 -16.613281 11.066406 -16.519531 11.140625 -16.4375 C 11.222656 -16.363281 11.359375 -16.28125 11.546875 -16.1875 C 11.734375 -16.09375 11.878906 -16.019531 11.984375 -15.96875 C 12.097656 -15.925781 12.28125 -15.859375 12.53125 -15.765625 C 12.78125 -15.671875 12.96875 -15.597656 13.09375 -15.546875 C 13.21875 -15.503906 13.425781 -15.4375 13.71875 -15.34375 C 14.019531 -15.25 14.25 -15.1875 14.40625 -15.15625 C 15.375 -14.875 16.210938 -14.5625 16.921875 -14.21875 C 17.640625 -13.875 18.394531 -13.40625 19.1875 -12.8125 C 19.988281 -12.21875 20.609375 -11.46875 21.046875 -10.5625 C 21.484375 -9.664062 21.703125 -8.640625 21.703125 -7.484375 C 21.703125 -2.023438 17.910156 0.703125 10.328125 0.703125 C 8.617188 0.703125 6.992188 0.4375 5.453125 -0.09375 C 3.910156 -0.625 2.796875 -1.15625 2.109375 -1.6875 L 1.078125 -2.53125 L 4.4375 -8.1875 C 4.6875 -7.96875 5.015625 -7.707031 5.421875 -7.40625 C 5.828125 -7.113281 6.5625 -6.707031 7.625 -6.1875 C 8.6875 -5.675781 9.601562 -5.421875 10.375 -5.421875 C 12.09375 -5.421875 12.953125 -6 12.953125 -7.15625 C 12.953125 -7.6875 12.734375 -8.097656 12.296875 -8.390625 C 11.859375 -8.691406 11.117188 -9.03125 10.078125 -9.40625 C 9.035156 -9.78125 8.21875 -10.117188 7.625 -10.421875 C 6.125 -11.203125 4.9375 -12.082031 4.0625 -13.0625 C 3.195312 -14.050781 2.765625 -15.351562 2.765625 -16.96875 C 2.765625 -19.40625 3.707031 -21.300781 5.59375 -22.65625 C 7.476562 -24.007812 10.023438 -24.6875 13.234375 -24.6875 Z M 13.234375 -24.6875 "/></g></g></g><g fill="#ff00ff" fill-opacity="1"><g transform="translate(181.462168, 303.302968)"><g><path d="M 27.078125 -10.84375 L 9.6875 -10.84375 C 9.6875 -9.164062 10.226562 -7.921875 11.3125 -7.109375 C 12.40625 -6.296875 13.59375 -5.890625 14.875 -5.890625 C 16.207031 -5.890625 17.265625 -6.066406 18.046875 -6.421875 C 18.828125 -6.785156 19.71875 -7.5 20.71875 -8.5625 L 26.703125 -5.5625 C 24.210938 -1.382812 20.066406 0.703125 14.265625 0.703125 C 10.648438 0.703125 7.546875 -0.535156 4.953125 -3.015625 C 2.367188 -5.492188 1.078125 -8.476562 1.078125 -11.96875 C 1.078125 -15.457031 2.367188 -18.445312 4.953125 -20.9375 C 7.546875 -23.4375 10.648438 -24.6875 14.265625 -24.6875 C 18.066406 -24.6875 21.160156 -23.585938 23.546875 -21.390625 C 25.929688 -19.191406 27.125 -16.050781 27.125 -11.96875 C 27.125 -11.40625 27.109375 -11.03125 27.078125 -10.84375 Z M 9.921875 -15.4375 L 19.03125 -15.4375 C 18.84375 -16.675781 18.351562 -17.628906 17.5625 -18.296875 C 16.769531 -18.972656 15.75 -19.3125 14.5 -19.3125 C 13.125 -19.3125 12.03125 -18.953125 11.21875 -18.234375 C 10.414062 -17.515625 9.984375 -16.582031 9.921875 -15.4375 Z M 9.921875 -15.4375 "/></g></g></g><g fill="#ff00ff" fill-opacity="1"><g transform="translate(209.664173, 303.302968)"><g/></g></g><g fill="#ff00ff" fill-opacity="1"><g transform="translate(222.432242, 303.302968)"><g><path d="M 17.015625 -39.28125 C 19.109375 -39.28125 21.148438 -38.972656 23.140625 -38.359375 C 25.140625 -37.753906 26.625 -37.160156 27.59375 -36.578125 L 29 -35.640625 L 25.4375 -28.625 C 25.15625 -28.8125 24.765625 -29.050781 24.265625 -29.34375 C 23.765625 -29.644531 22.828125 -30.039062 21.453125 -30.53125 C 20.085938 -31.03125 18.8125 -31.28125 17.625 -31.28125 C 16.164062 -31.28125 15.035156 -30.96875 14.234375 -30.34375 C 13.441406 -29.726562 13.046875 -28.890625 13.046875 -27.828125 C 13.046875 -27.296875 13.234375 -26.800781 13.609375 -26.34375 C 13.984375 -25.894531 14.617188 -25.410156 15.515625 -24.890625 C 16.421875 -24.378906 17.21875 -23.96875 17.90625 -23.65625 C 18.59375 -23.351562 19.65625 -22.890625 21.09375 -22.265625 C 23.582031 -21.203125 25.707031 -19.757812 27.46875 -17.9375 C 29.226562 -16.113281 30.109375 -14.046875 30.109375 -11.734375 C 30.109375 -9.523438 29.710938 -7.59375 28.921875 -5.9375 C 28.128906 -4.28125 27.035156 -2.984375 25.640625 -2.046875 C 24.253906 -1.117188 22.71875 -0.429688 21.03125 0.015625 C 19.351562 0.472656 17.535156 0.703125 15.578125 0.703125 C 13.890625 0.703125 12.234375 0.53125 10.609375 0.1875 C 8.992188 -0.15625 7.640625 -0.582031 6.546875 -1.09375 C 5.453125 -1.613281 4.46875 -2.117188 3.59375 -2.609375 C 2.726562 -3.109375 2.09375 -3.53125 1.6875 -3.875 L 1.078125 -4.390625 L 5.46875 -11.78125 C 5.84375 -11.46875 6.359375 -11.070312 7.015625 -10.59375 C 7.671875 -10.113281 8.832031 -9.46875 10.5 -8.65625 C 12.164062 -7.84375 13.640625 -7.4375 14.921875 -7.4375 C 18.628906 -7.4375 20.484375 -8.695312 20.484375 -11.21875 C 20.484375 -11.75 20.347656 -12.238281 20.078125 -12.6875 C 19.816406 -13.144531 19.347656 -13.597656 18.671875 -14.046875 C 18.003906 -14.503906 17.414062 -14.863281 16.90625 -15.125 C 16.394531 -15.394531 15.550781 -15.800781 14.375 -16.34375 C 13.207031 -16.882812 12.34375 -17.296875 11.78125 -17.578125 C 9.445312 -18.734375 7.640625 -20.175781 6.359375 -21.90625 C 5.078125 -23.632812 4.4375 -25.5 4.4375 -27.5 C 4.4375 -30.957031 5.710938 -33.785156 8.265625 -35.984375 C 10.828125 -38.179688 13.742188 -39.28125 17.015625 -39.28125 Z M 17.015625 -39.28125 "/></g></g></g><g fill="#ff00ff" fill-opacity="1"><g transform="translate(253.861344, 303.302968)"><g><path d="M 4.203125 -23.984375 L 4.203125 -32.921875 L 12.484375 -32.921875 L 12.484375 -23.984375 L 17.53125 -23.984375 L 17.53125 -17.671875 L 12.484375 -17.671875 L 12.484375 -10.046875 C 12.484375 -7.835938 13.109375 -6.734375 14.359375 -6.734375 C 14.671875 -6.734375 15 -6.796875 15.34375 -6.921875 C 15.6875 -7.046875 15.953125 -7.171875 16.140625 -7.296875 L 16.421875 -7.484375 L 18.46875 -0.796875 C 16.695312 0.203125 14.671875 0.703125 12.390625 0.703125 C 10.828125 0.703125 9.484375 0.429688 8.359375 -0.109375 C 7.242188 -0.660156 6.394531 -1.394531 5.8125 -2.3125 C 5.238281 -3.226562 4.828125 -4.191406 4.578125 -5.203125 C 4.328125 -6.222656 4.203125 -7.3125 4.203125 -8.46875 L 4.203125 -17.671875 L 0.75 -17.671875 L 0.75 -23.984375 Z M 4.203125 -23.984375 "/></g></g></g><g fill="#ff00ff" fill-opacity="1"><g transform="translate(272.335312, 303.302968)"><g><path d="M 4.4375 -2.96875 C 2.195312 -5.414062 1.078125 -8.414062 1.078125 -11.96875 C 1.078125 -15.519531 2.195312 -18.523438 4.4375 -20.984375 C 6.6875 -23.453125 9.539062 -24.6875 13 -24.6875 C 16.175781 -24.6875 18.796875 -23.691406 20.859375 -21.703125 L 20.859375 -23.984375 L 29.140625 -23.984375 L 29.140625 0 L 20.953125 0 L 20.953125 -2.71875 L 20.859375 -2.71875 C 18.796875 -0.4375 16.175781 0.703125 13 0.703125 C 9.539062 0.703125 6.6875 -0.519531 4.4375 -2.96875 Z M 11.484375 -16.03125 C 10.410156 -14.976562 9.875 -13.625 9.875 -11.96875 C 9.875 -10.320312 10.382812 -8.972656 11.40625 -7.921875 C 12.4375 -6.878906 13.796875 -6.359375 15.484375 -6.359375 C 17.097656 -6.359375 18.425781 -6.890625 19.46875 -7.953125 C 20.519531 -9.015625 21.046875 -10.351562 21.046875 -11.96875 C 21.046875 -13.625 20.503906 -14.976562 19.421875 -16.03125 C 18.347656 -17.09375 17.035156 -17.625 15.484375 -17.625 C 13.890625 -17.625 12.554688 -17.09375 11.484375 -16.03125 Z M 11.484375 -16.03125 "/></g></g></g><g fill="#ff00ff" fill-opacity="1"><g transform="translate(304.278883, 303.302968)"><g><path d="M 2.8125 0 L 2.8125 -23.984375 L 11.078125 -23.984375 L 11.078125 -20.53125 L 11.171875 -20.53125 C 11.234375 -20.65625 11.332031 -20.8125 11.46875 -21 C 11.613281 -21.1875 11.921875 -21.515625 12.390625 -21.984375 C 12.859375 -22.453125 13.359375 -22.867188 13.890625 -23.234375 C 14.421875 -23.609375 15.101562 -23.941406 15.9375 -24.234375 C 16.78125 -24.535156 17.640625 -24.6875 18.515625 -24.6875 C 19.421875 -24.6875 20.3125 -24.5625 21.1875 -24.3125 C 22.0625 -24.0625 22.703125 -23.8125 23.109375 -23.5625 L 23.75 -23.203125 L 20.296875 -16.1875 C 19.265625 -17.050781 17.832031 -17.484375 16 -17.484375 C 15 -17.484375 14.140625 -17.265625 13.421875 -16.828125 C 12.703125 -16.398438 12.191406 -15.875 11.890625 -15.25 C 11.597656 -14.625 11.390625 -14.09375 11.265625 -13.65625 C 11.140625 -13.21875 11.078125 -12.875 11.078125 -12.625 L 11.078125 0 Z M 2.8125 0 "/></g></g></g><g fill="#00ffff" fill-opacity="1"><g transform="translate(47.42052, 303.302968)"><g><path d="M 2.8125 -38.578125 L 16.875 -38.578125 C 20.8125 -38.578125 23.992188 -37.5625 26.421875 -35.53125 C 28.847656 -33.507812 30.0625 -30.566406 30.0625 -26.703125 C 30.0625 -22.835938 28.832031 -19.804688 26.375 -17.609375 C 23.914062 -15.410156 20.75 -14.3125 16.875 -14.3125 L 11.59375 -14.3125 L 11.59375 0 L 2.8125 0 Z M 11.59375 -21.328125 L 14.078125 -21.328125 C 16.035156 -21.328125 17.644531 -21.722656 18.90625 -22.515625 C 20.175781 -23.304688 20.8125 -24.609375 20.8125 -26.421875 C 20.8125 -28.265625 20.175781 -29.582031 18.90625 -30.375 C 17.644531 -31.164062 16.035156 -31.5625 14.078125 -31.5625 L 11.59375 -31.5625 Z M 11.59375 -21.328125 "/></g></g></g><g fill="#00ffff" fill-opacity="1"><g transform="translate(78.569001, 303.302968)"><g><path d="M 2.8125 0 L 2.8125 -40.21875 L 11.078125 -40.21875 L 11.078125 0 Z M 2.8125 0 "/></g></g></g><g fill="#00ffff" fill-opacity="1"><g transform="translate(92.459541, 303.302968)"><g><path d="M 27.078125 -10.84375 L 9.6875 -10.84375 C 9.6875 -9.164062 10.226562 -7.921875 11.3125 -7.109375 C 12.40625 -6.296875 13.59375 -5.890625 14.875 -5.890625 C 16.207031 -5.890625 17.265625 -6.066406 18.046875 -6.421875 C 18.828125 -6.785156 19.71875 -7.5 20.71875 -8.5625 L 26.703125 -5.5625 C 24.210938 -1.382812 20.066406 0.703125 14.265625 0.703125 C 10.648438 0.703125 7.546875 -0.535156 4.953125 -3.015625 C 2.367188 -5.492188 1.078125 -8.476562 1.078125 -11.96875 C 1.078125 -15.457031 2.367188 -18.445312 4.953125 -20.9375 C 7.546875 -23.4375 10.648438 -24.6875 14.265625 -24.6875 C 18.066406 -24.6875 21.160156 -23.585938 23.546875 -21.390625 C 25.929688 -19.191406 27.125 -16.050781 27.125 -11.96875 C 27.125 -11.40625 27.109375 -11.03125 27.078125 -10.84375 Z M 9.921875 -15.4375 L 19.03125 -15.4375 C 18.84375 -16.675781 18.351562 -17.628906 17.5625 -18.296875 C 16.769531 -18.972656 15.75 -19.3125 14.5 -19.3125 C 13.125 -19.3125 12.03125 -18.953125 11.21875 -18.234375 C 10.414062 -17.515625 9.984375 -16.582031 9.921875 -15.4375 Z M 9.921875 -15.4375 "/></g></g></g><g fill="#00ffff" fill-opacity="1"><g transform="translate(120.661546, 303.302968)"><g><path d="M 4.4375 -2.96875 C 2.195312 -5.414062 1.078125 -8.414062 1.078125 -11.96875 C 1.078125 -15.519531 2.195312 -18.523438 4.4375 -20.984375 C 6.6875 -23.453125 9.539062 -24.6875 13 -24.6875 C 16.175781 -24.6875 18.796875 -23.691406 20.859375 -21.703125 L 20.859375 -23.984375 L 29.140625 -23.984375 L 29.140625 0 L 20.953125 0 L 20.953125 -2.71875 L 20.859375 -2.71875 C 18.796875 -0.4375 16.175781 0.703125 13 0.703125 C 9.539062 0.703125 6.6875 -0.519531 4.4375 -2.96875 Z M 11.484375 -16.03125 C 10.410156 -14.976562 9.875 -13.625 9.875 -11.96875 C 9.875 -10.320312 10.382812 -8.972656 11.40625 -7.921875 C 12.4375 -6.878906 13.796875 -6.359375 15.484375 -6.359375 C 17.097656 -6.359375 18.425781 -6.890625 19.46875 -7.953125 C 20.519531 -9.015625 21.046875 -10.351562 21.046875 -11.96875 C 21.046875 -13.625 20.503906 -14.976562 19.421875 -16.03125 C 18.347656 -17.09375 17.035156 -17.625 15.484375 -17.625 C 13.890625 -17.625 12.554688 -17.09375 11.484375 -16.03125 Z M 11.484375 -16.03125 "/></g></g></g><g fill="#00ffff" fill-opacity="1"><g transform="translate(152.605118, 303.302968)"><g><path d="M 13.234375 -24.6875 C 14.609375 -24.6875 15.960938 -24.53125 17.296875 -24.21875 C 18.640625 -23.90625 19.640625 -23.597656 20.296875 -23.296875 L 21.28125 -22.828125 L 18.5625 -17.390625 C 16.695312 -18.390625 14.921875 -18.890625 13.234375 -18.890625 C 12.296875 -18.890625 11.628906 -18.785156 11.234375 -18.578125 C 10.847656 -18.378906 10.65625 -18 10.65625 -17.4375 C 10.65625 -17.3125 10.671875 -17.1875 10.703125 -17.0625 C 10.734375 -16.9375 10.796875 -16.820312 10.890625 -16.71875 C 10.984375 -16.613281 11.066406 -16.519531 11.140625 -16.4375 C 11.222656 -16.363281 11.359375 -16.28125 11.546875 -16.1875 C 11.734375 -16.09375 11.878906 -16.019531 11.984375 -15.96875 C 12.097656 -15.925781 12.28125 -15.859375 12.53125 -15.765625 C 12.78125 -15.671875 12.96875 -15.597656 13.09375 -15.546875 C 13.21875 -15.503906 13.425781 -15.4375 13.71875 -15.34375 C 14.019531 -15.25 14.25 -15.1875 14.40625 -15.15625 C 15.375 -14.875 16.210938 -14.5625 16.921875 -14.21875 C 17.640625 -13.875 18.394531 -13.40625 19.1875 -12.8125 C 19.988281 -12.21875 20.609375 -11.46875 21.046875 -10.5625 C 21.484375 -9.664062 21.703125 -8.640625 21.703125 -7.484375 C 21.703125 -2.023438 17.910156 0.703125 10.328125 0.703125 C 8.617188 0.703125 6.992188 0.4375 5.453125 -0.09375 C 3.910156 -0.625 2.796875 -1.15625 2.109375 -1.6875 L 1.078125 -2.53125 L 4.4375 -8.1875 C 4.6875 -7.96875 5.015625 -7.707031 5.421875 -7.40625 C 5.828125 -7.113281 6.5625 -6.707031 7.625 -6.1875 C 8.6875 -5.675781 9.601562 -5.421875 10.375 -5.421875 C 12.09375 -5.421875 12.953125 -6 12.953125 -7.15625 C 12.953125 -7.6875 12.734375 -8.097656 12.296875 -8.390625 C 11.859375 -8.691406 11.117188 -9.03125 10.078125 -9.40625 C 9.035156 -9.78125 8.21875 -10.117188 7.625 -10.421875 C 6.125 -11.203125 4.9375 -12.082031 4.0625 -13.0625 C 3.195312 -14.050781 2.765625 -15.351562 2.765625 -16.96875 C 2.765625 -19.40625 3.707031 -21.300781 5.59375 -22.65625 C 7.476562 -24.007812 10.023438 -24.6875 13.234375 -24.6875 Z M 13.234375 -24.6875 "/></g></g></g><g fill="#00ffff" fill-opacity="1"><g transform="translate(175.615706, 303.302968)"><g><path d="M 27.078125 -10.84375 L 9.6875 -10.84375 C 9.6875 -9.164062 10.226562 -7.921875 11.3125 -7.109375 C 12.40625 -6.296875 13.59375 -5.890625 14.875 -5.890625 C 16.207031 -5.890625 17.265625 -6.066406 18.046875 -6.421875 C 18.828125 -6.785156 19.71875 -7.5 20.71875 -8.5625 L 26.703125 -5.5625 C 24.210938 -1.382812 20.066406 0.703125 14.265625 0.703125 C 10.648438 0.703125 7.546875 -0.535156 4.953125 -3.015625 C 2.367188 -5.492188 1.078125 -8.476562 1.078125 -11.96875 C 1.078125 -15.457031 2.367188 -18.445312 4.953125 -20.9375 C 7.546875 -23.4375 10.648438 -24.6875 14.265625 -24.6875 C 18.066406 -24.6875 21.160156 -23.585938 23.546875 -21.390625 C 25.929688 -19.191406 27.125 -16.050781 27.125 -11.96875 C 27.125 -11.40625 27.109375 -11.03125 27.078125 -10.84375 Z M 9.921875 -15.4375 L 19.03125 -15.4375 C 18.84375 -16.675781 18.351562 -17.628906 17.5625 -18.296875 C 16.769531 -18.972656 15.75 -19.3125 14.5 -19.3125 C 13.125 -19.3125 12.03125 -18.953125 11.21875 -18.234375 C 10.414062 -17.515625 9.984375 -16.582031 9.921875 -15.4375 Z M 9.921875 -15.4375 "/></g></g></g><g fill="#00ffff" fill-opacity="1"><g transform="translate(203.817711, 303.302968)"><g/></g></g><g fill="#00ffff" fill-opacity="1"><g transform="translate(216.58578, 303.302968)"><g><path d="M 17.015625 -39.28125 C 19.109375 -39.28125 21.148438 -38.972656 23.140625 -38.359375 C 25.140625 -37.753906 26.625 -37.160156 27.59375 -36.578125 L 29 -35.640625 L 25.4375 -28.625 C 25.15625 -28.8125 24.765625 -29.050781 24.265625 -29.34375 C 23.765625 -29.644531 22.828125 -30.039062 21.453125 -30.53125 C 20.085938 -31.03125 18.8125 -31.28125 17.625 -31.28125 C 16.164062 -31.28125 15.035156 -30.96875 14.234375 -30.34375 C 13.441406 -29.726562 13.046875 -28.890625 13.046875 -27.828125 C 13.046875 -27.296875 13.234375 -26.800781 13.609375 -26.34375 C 13.984375 -25.894531 14.617188 -25.410156 15.515625 -24.890625 C 16.421875 -24.378906 17.21875 -23.96875 17.90625 -23.65625 C 18.59375 -23.351562 19.65625 -22.890625 21.09375 -22.265625 C 23.582031 -21.203125 25.707031 -19.757812 27.46875 -17.9375 C 29.226562 -16.113281 30.109375 -14.046875 30.109375 -11.734375 C 30.109375 -9.523438 29.710938 -7.59375 28.921875 -5.9375 C 28.128906 -4.28125 27.035156 -2.984375 25.640625 -2.046875 C 24.253906 -1.117188 22.71875 -0.429688 21.03125 0.015625 C 19.351562 0.472656 17.535156 0.703125 15.578125 0.703125 C 13.890625 0.703125 12.234375 0.53125 10.609375 0.1875 C 8.992188 -0.15625 7.640625 -0.582031 6.546875 -1.09375 C 5.453125 -1.613281 4.46875 -2.117188 3.59375 -2.609375 C 2.726562 -3.109375 2.09375 -3.53125 1.6875 -3.875 L 1.078125 -4.390625 L 5.46875 -11.78125 C 5.84375 -11.46875 6.359375 -11.070312 7.015625 -10.59375 C 7.671875 -10.113281 8.832031 -9.46875 10.5 -8.65625 C 12.164062 -7.84375 13.640625 -7.4375 14.921875 -7.4375 C 18.628906 -7.4375 20.484375 -8.695312 20.484375 -11.21875 C 20.484375 -11.75 20.347656 -12.238281 20.078125 -12.6875 C 19.816406 -13.144531 19.347656 -13.597656 18.671875 -14.046875 C 18.003906 -14.503906 17.414062 -14.863281 16.90625 -15.125 C 16.394531 -15.394531 15.550781 -15.800781 14.375 -16.34375 C 13.207031 -16.882812 12.34375 -17.296875 11.78125 -17.578125 C 9.445312 -18.734375 7.640625 -20.175781 6.359375 -21.90625 C 5.078125 -23.632812 4.4375 -25.5 4.4375 -27.5 C 4.4375 -30.957031 5.710938 -33.785156 8.265625 -35.984375 C 10.828125 -38.179688 13.742188 -39.28125 17.015625 -39.28125 Z M 17.015625 -39.28125 "/></g></g></g><g fill="#00ffff" fill-opacity="1"><g transform="translate(248.014882, 303.302968)"><g><path d="M 4.203125 -23.984375 L 4.203125 -32.921875 L 12.484375 -32.921875 L 12.484375 -23.984375 L 17.53125 -23.984375 L 17.53125 -17.671875 L 12.484375 -17.671875 L 12.484375 -10.046875 C 12.484375 -7.835938 13.109375 -6.734375 14.359375 -6.734375 C 14.671875 -6.734375 15 -6.796875 15.34375 -6.921875 C 15.6875 -7.046875 15.953125 -7.171875 16.140625 -7.296875 L 16.421875 -7.484375 L 18.46875 -0.796875 C 16.695312 0.203125 14.671875 0.703125 12.390625 0.703125 C 10.828125 0.703125 9.484375 0.429688 8.359375 -0.109375 C 7.242188 -0.660156 6.394531 -1.394531 5.8125 -2.3125 C 5.238281 -3.226562 4.828125 -4.191406 4.578125 -5.203125 C 4.328125 -6.222656 4.203125 -7.3125 4.203125 -8.46875 L 4.203125 -17.671875 L 0.75 -17.671875 L 0.75 -23.984375 Z M 4.203125 -23.984375 "/></g></g></g><g fill="#00ffff" fill-opacity="1"><g transform="translate(266.48885, 303.302968)"><g><path d="M 4.4375 -2.96875 C 2.195312 -5.414062 1.078125 -8.414062 1.078125 -11.96875 C 1.078125 -15.519531 2.195312 -18.523438 4.4375 -20.984375 C 6.6875 -23.453125 9.539062 -24.6875 13 -24.6875 C 16.175781 -24.6875 18.796875 -23.691406 20.859375 -21.703125 L 20.859375 -23.984375 L 29.140625 -23.984375 L 29.140625 0 L 20.953125 0 L 20.953125 -2.71875 L 20.859375 -2.71875 C 18.796875 -0.4375 16.175781 0.703125 13 0.703125 C 9.539062 0.703125 6.6875 -0.519531 4.4375 -2.96875 Z M 11.484375 -16.03125 C 10.410156 -14.976562 9.875 -13.625 9.875 -11.96875 C 9.875 -10.320312 10.382812 -8.972656 11.40625 -7.921875 C 12.4375 -6.878906 13.796875 -6.359375 15.484375 -6.359375 C 17.097656 -6.359375 18.425781 -6.890625 19.46875 -7.953125 C 20.519531 -9.015625 21.046875 -10.351562 21.046875 -11.96875 C 21.046875 -13.625 20.503906 -14.976562 19.421875 -16.03125 C 18.347656 -17.09375 17.035156 -17.625 15.484375 -17.625 C 13.890625 -17.625 12.554688 -17.09375 11.484375 -16.03125 Z M 11.484375 -16.03125 "/></g></g></g><g fill="#00ffff" fill-opacity="1"><g transform="translate(298.432421, 303.302968)"><g><path d="M 2.8125 0 L 2.8125 -23.984375 L 11.078125 -23.984375 L 11.078125 -20.53125 L 11.171875 -20.53125 C 11.234375 -20.65625 11.332031 -20.8125 11.46875 -21 C 11.613281 -21.1875 11.921875 -21.515625 12.390625 -21.984375 C 12.859375 -22.453125 13.359375 -22.867188 13.890625 -23.234375 C 14.421875 -23.609375 15.101562 -23.941406 15.9375 -24.234375 C 16.78125 -24.535156 17.640625 -24.6875 18.515625 -24.6875 C 19.421875 -24.6875 20.3125 -24.5625 21.1875 -24.3125 C 22.0625 -24.0625 22.703125 -23.8125 23.109375 -23.5625 L 23.75 -23.203125 L 20.296875 -16.1875 C 19.265625 -17.050781 17.832031 -17.484375 16 -17.484375 C 15 -17.484375 14.140625 -17.265625 13.421875 -16.828125 C 12.703125 -16.398438 12.191406 -15.875 11.890625 -15.25 C 11.597656 -14.625 11.390625 -14.09375 11.265625 -13.65625 C 11.140625 -13.21875 11.078125 -12.875 11.078125 -12.625 L 11.078125 0 Z M 2.8125 0 "/></g></g></g><g fill="#000000" fill-opacity="1"><g transform="translate(50.343751, 303.302968)"><g><path d="M 2.8125 -38.578125 L 16.875 -38.578125 C 20.8125 -38.578125 23.992188 -37.5625 26.421875 -35.53125 C 28.847656 -33.507812 30.0625 -30.566406 30.0625 -26.703125 C 30.0625 -22.835938 28.832031 -19.804688 26.375 -17.609375 C 23.914062 -15.410156 20.75 -14.3125 16.875 -14.3125 L 11.59375 -14.3125 L 11.59375 0 L 2.8125 0 Z M 11.59375 -21.328125 L 14.078125 -21.328125 C 16.035156 -21.328125 17.644531 -21.722656 18.90625 -22.515625 C 20.175781 -23.304688 20.8125 -24.609375 20.8125 -26.421875 C 20.8125 -28.265625 20.175781 -29.582031 18.90625 -30.375 C 17.644531 -31.164062 16.035156 -31.5625 14.078125 -31.5625 L 11.59375 -31.5625 Z M 11.59375 -21.328125 "/></g></g></g><g fill="#000000" fill-opacity="1"><g transform="translate(81.492232, 303.302968)"><g><path d="M 2.8125 0 L 2.8125 -40.21875 L 11.078125 -40.21875 L 11.078125 0 Z M 2.8125 0 "/></g></g></g><g fill="#000000" fill-opacity="1"><g transform="translate(95.382772, 303.302968)"><g><path d="M 27.078125 -10.84375 L 9.6875 -10.84375 C 9.6875 -9.164062 10.226562 -7.921875 11.3125 -7.109375 C 12.40625 -6.296875 13.59375 -5.890625 14.875 -5.890625 C 16.207031 -5.890625 17.265625 -6.066406 18.046875 -6.421875 C 18.828125 -6.785156 19.71875 -7.5 20.71875 -8.5625 L 26.703125 -5.5625 C 24.210938 -1.382812 20.066406 0.703125 14.265625 0.703125 C 10.648438 0.703125 7.546875 -0.535156 4.953125 -3.015625 C 2.367188 -5.492188 1.078125 -8.476562 1.078125 -11.96875 C 1.078125 -15.457031 2.367188 -18.445312 4.953125 -20.9375 C 7.546875 -23.4375 10.648438 -24.6875 14.265625 -24.6875 C 18.066406 -24.6875 21.160156 -23.585938 23.546875 -21.390625 C 25.929688 -19.191406 27.125 -16.050781 27.125 -11.96875 C 27.125 -11.40625 27.109375 -11.03125 27.078125 -10.84375 Z M 9.921875 -15.4375 L 19.03125 -15.4375 C 18.84375 -16.675781 18.351562 -17.628906 17.5625 -18.296875 C 16.769531 -18.972656 15.75 -19.3125 14.5 -19.3125 C 13.125 -19.3125 12.03125 -18.953125 11.21875 -18.234375 C 10.414062 -17.515625 9.984375 -16.582031 9.921875 -15.4375 Z M 9.921875 -15.4375 "/></g></g></g><g fill="#000000" fill-opacity="1"><g transform="translate(123.584777, 303.302968)"><g><path d="M 4.4375 -2.96875 C 2.195312 -5.414062 1.078125 -8.414062 1.078125 -11.96875 C 1.078125 -15.519531 2.195312 -18.523438 4.4375 -20.984375 C 6.6875 -23.453125 9.539062 -24.6875 13 -24.6875 C 16.175781 -24.6875 18.796875 -23.691406 20.859375 -21.703125 L 20.859375 -23.984375 L 29.140625 -23.984375 L 29.140625 0 L 20.953125 0 L 20.953125 -2.71875 L 20.859375 -2.71875 C 18.796875 -0.4375 16.175781 0.703125 13 0.703125 C 9.539062 0.703125 6.6875 -0.519531 4.4375 -2.96875 Z M 11.484375 -16.03125 C 10.410156 -14.976562 9.875 -13.625 9.875 -11.96875 C 9.875 -10.320312 10.382812 -8.972656 11.40625 -7.921875 C 12.4375 -6.878906 13.796875 -6.359375 15.484375 -6.359375 C 17.097656 -6.359375 18.425781 -6.890625 19.46875 -7.953125 C 20.519531 -9.015625 21.046875 -10.351562 21.046875 -11.96875 C 21.046875 -13.625 20.503906 -14.976562 19.421875 -16.03125 C 18.347656 -17.09375 17.035156 -17.625 15.484375 -17.625 C 13.890625 -17.625 12.554688 -17.09375 11.484375 -16.03125 Z M 11.484375 -16.03125 "/></g></g></g><g fill="#000000" fill-opacity="1"><g transform="translate(155.528349, 303.302968)"><g><path d="M 13.234375 -24.6875 C 14.609375 -24.6875 15.960938 -24.53125 17.296875 -24.21875 C 18.640625 -23.90625 19.640625 -23.597656 20.296875 -23.296875 L 21.28125 -22.828125 L 18.5625 -17.390625 C 16.695312 -18.390625 14.921875 -18.890625 13.234375 -18.890625 C 12.296875 -18.890625 11.628906 -18.785156 11.234375 -18.578125 C 10.847656 -18.378906 10.65625 -18 10.65625 -17.4375 C 10.65625 -17.3125 10.671875 -17.1875 10.703125 -17.0625 C 10.734375 -16.9375 10.796875 -16.820312 10.890625 -16.71875 C 10.984375 -16.613281 11.066406 -16.519531 11.140625 -16.4375 C 11.222656 -16.363281 11.359375 -16.28125 11.546875 -16.1875 C 11.734375 -16.09375 11.878906 -16.019531 11.984375 -15.96875 C 12.097656 -15.925781 12.28125 -15.859375 12.53125 -15.765625 C 12.78125 -15.671875 12.96875 -15.597656 13.09375 -15.546875 C 13.21875 -15.503906 13.425781 -15.4375 13.71875 -15.34375 C 14.019531 -15.25 14.25 -15.1875 14.40625 -15.15625 C 15.375 -14.875 16.210938 -14.5625 16.921875 -14.21875 C 17.640625 -13.875 18.394531 -13.40625 19.1875 -12.8125 C 19.988281 -12.21875 20.609375 -11.46875 21.046875 -10.5625 C 21.484375 -9.664062 21.703125 -8.640625 21.703125 -7.484375 C 21.703125 -2.023438 17.910156 0.703125 10.328125 0.703125 C 8.617188 0.703125 6.992188 0.4375 5.453125 -0.09375 C 3.910156 -0.625 2.796875 -1.15625 2.109375 -1.6875 L 1.078125 -2.53125 L 4.4375 -8.1875 C 4.6875 -7.96875 5.015625 -7.707031 5.421875 -7.40625 C 5.828125 -7.113281 6.5625 -6.707031 7.625 -6.1875 C 8.6875 -5.675781 9.601562 -5.421875 10.375 -5.421875 C 12.09375 -5.421875 12.953125 -6 12.953125 -7.15625 C 12.953125 -7.6875 12.734375 -8.097656 12.296875 -8.390625 C 11.859375 -8.691406 11.117188 -9.03125 10.078125 -9.40625 C 9.035156 -9.78125 8.21875 -10.117188 7.625 -10.421875 C 6.125 -11.203125 4.9375 -12.082031 4.0625 -13.0625 C 3.195312 -14.050781 2.765625 -15.351562 2.765625 -16.96875 C 2.765625 -19.40625 3.707031 -21.300781 5.59375 -22.65625 C 7.476562 -24.007812 10.023438 -24.6875 13.234375 -24.6875 Z M 13.234375 -24.6875 "/></g></g></g><g fill="#000000" fill-opacity="1"><g transform="translate(178.538937, 303.302968)"><g><path d="M 27.078125 -10.84375 L 9.6875 -10.84375 C 9.6875 -9.164062 10.226562 -7.921875 11.3125 -7.109375 C 12.40625 -6.296875 13.59375 -5.890625 14.875 -5.890625 C 16.207031 -5.890625 17.265625 -6.066406 18.046875 -6.421875 C 18.828125 -6.785156 19.71875 -7.5 20.71875 -8.5625 L 26.703125 -5.5625 C 24.210938 -1.382812 20.066406 0.703125 14.265625 0.703125 C 10.648438 0.703125 7.546875 -0.535156 4.953125 -3.015625 C 2.367188 -5.492188 1.078125 -8.476562 1.078125 -11.96875 C 1.078125 -15.457031 2.367188 -18.445312 4.953125 -20.9375 C 7.546875 -23.4375 10.648438 -24.6875 14.265625 -24.6875 C 18.066406 -24.6875 21.160156 -23.585938 23.546875 -21.390625 C 25.929688 -19.191406 27.125 -16.050781 27.125 -11.96875 C 27.125 -11.40625 27.109375 -11.03125 27.078125 -10.84375 Z M 9.921875 -15.4375 L 19.03125 -15.4375 C 18.84375 -16.675781 18.351562 -17.628906 17.5625 -18.296875 C 16.769531 -18.972656 15.75 -19.3125 14.5 -19.3125 C 13.125 -19.3125 12.03125 -18.953125 11.21875 -18.234375 C 10.414062 -17.515625 9.984375 -16.582031 9.921875 -15.4375 Z M 9.921875 -15.4375 "/></g></g></g><g fill="#000000" fill-opacity="1"><g transform="translate(206.740942, 303.302968)"><g/></g></g><g fill="#000000" fill-opacity="1"><g transform="translate(219.509011, 303.302968)"><g><path d="M 17.015625 -39.28125 C 19.109375 -39.28125 21.148438 -38.972656 23.140625 -38.359375 C 25.140625 -37.753906 26.625 -37.160156 27.59375 -36.578125 L 29 -35.640625 L 25.4375 -28.625 C 25.15625 -28.8125 24.765625 -29.050781 24.265625 -29.34375 C 23.765625 -29.644531 22.828125 -30.039062 21.453125 -30.53125 C 20.085938 -31.03125 18.8125 -31.28125 17.625 -31.28125 C 16.164062 -31.28125 15.035156 -30.96875 14.234375 -30.34375 C 13.441406 -29.726562 13.046875 -28.890625 13.046875 -27.828125 C 13.046875 -27.296875 13.234375 -26.800781 13.609375 -26.34375 C 13.984375 -25.894531 14.617188 -25.410156 15.515625 -24.890625 C 16.421875 -24.378906 17.21875 -23.96875 17.90625 -23.65625 C 18.59375 -23.351562 19.65625 -22.890625 21.09375 -22.265625 C 23.582031 -21.203125 25.707031 -19.757812 27.46875 -17.9375 C 29.226562 -16.113281 30.109375 -14.046875 30.109375 -11.734375 C 30.109375 -9.523438 29.710938 -7.59375 28.921875 -5.9375 C 28.128906 -4.28125 27.035156 -2.984375 25.640625 -2.046875 C 24.253906 -1.117188 22.71875 -0.429688 21.03125 0.015625 C 19.351562 0.472656 17.535156 0.703125 15.578125 0.703125 C 13.890625 0.703125 12.234375 0.53125 10.609375 0.1875 C 8.992188 -0.15625 7.640625 -0.582031 6.546875 -1.09375 C 5.453125 -1.613281 4.46875 -2.117188 3.59375 -2.609375 C 2.726562 -3.109375 2.09375 -3.53125 1.6875 -3.875 L 1.078125 -4.390625 L 5.46875 -11.78125 C 5.84375 -11.46875 6.359375 -11.070312 7.015625 -10.59375 C 7.671875 -10.113281 8.832031 -9.46875 10.5 -8.65625 C 12.164062 -7.84375 13.640625 -7.4375 14.921875 -7.4375 C 18.628906 -7.4375 20.484375 -8.695312 20.484375 -11.21875 C 20.484375 -11.75 20.347656 -12.238281 20.078125 -12.6875 C 19.816406 -13.144531 19.347656 -13.597656 18.671875 -14.046875 C 18.003906 -14.503906 17.414062 -14.863281 16.90625 -15.125 C 16.394531 -15.394531 15.550781 -15.800781 14.375 -16.34375 C 13.207031 -16.882812 12.34375 -17.296875 11.78125 -17.578125 C 9.445312 -18.734375 7.640625 -20.175781 6.359375 -21.90625 C 5.078125 -23.632812 4.4375 -25.5 4.4375 -27.5 C 4.4375 -30.957031 5.710938 -33.785156 8.265625 -35.984375 C 10.828125 -38.179688 13.742188 -39.28125 17.015625 -39.28125 Z M 17.015625 -39.28125 "/></g></g></g><g fill="#000000" fill-opacity="1"><g transform="translate(250.938113, 303.302968)"><g><path d="M 4.203125 -23.984375 L 4.203125 -32.921875 L 12.484375 -32.921875 L 12.484375 -23.984375 L 17.53125 -23.984375 L 17.53125 -17.671875 L 12.484375 -17.671875 L 12.484375 -10.046875 C 12.484375 -7.835938 13.109375 -6.734375 14.359375 -6.734375 C 14.671875 -6.734375 15 -6.796875 15.34375 -6.921875 C 15.6875 -7.046875 15.953125 -7.171875 16.140625 -7.296875 L 16.421875 -7.484375 L 18.46875 -0.796875 C 16.695312 0.203125 14.671875 0.703125 12.390625 0.703125 C 10.828125 0.703125 9.484375 0.429688 8.359375 -0.109375 C 7.242188 -0.660156 6.394531 -1.394531 5.8125 -2.3125 C 5.238281 -3.226562 4.828125 -4.191406 4.578125 -5.203125 C 4.328125 -6.222656 4.203125 -7.3125 4.203125 -8.46875 L 4.203125 -17.671875 L 0.75 -17.671875 L 0.75 -23.984375 Z M 4.203125 -23.984375 "/></g></g></g><g fill="#000000" fill-opacity="1"><g transform="translate(269.412081, 303.302968)"><g><path d="M 4.4375 -2.96875 C 2.195312 -5.414062 1.078125 -8.414062 1.078125 -11.96875 C 1.078125 -15.519531 2.195312 -18.523438 4.4375 -20.984375 C 6.6875 -23.453125 9.539062 -24.6875 13 -24.6875 C 16.175781 -24.6875 18.796875 -23.691406 20.859375 -21.703125 L 20.859375 -23.984375 L 29.140625 -23.984375 L 29.140625 0 L 20.953125 0 L 20.953125 -2.71875 L 20.859375 -2.71875 C 18.796875 -0.4375 16.175781 0.703125 13 0.703125 C 9.539062 0.703125 6.6875 -0.519531 4.4375 -2.96875 Z M 11.484375 -16.03125 C 10.410156 -14.976562 9.875 -13.625 9.875 -11.96875 C 9.875 -10.320312 10.382812 -8.972656 11.40625 -7.921875 C 12.4375 -6.878906 13.796875 -6.359375 15.484375 -6.359375 C 17.097656 -6.359375 18.425781 -6.890625 19.46875 -7.953125 C 20.519531 -9.015625 21.046875 -10.351562 21.046875 -11.96875 C 21.046875 -13.625 20.503906 -14.976562 19.421875 -16.03125 C 18.347656 -17.09375 17.035156 -17.625 15.484375 -17.625 C 13.890625 -17.625 12.554688 -17.09375 11.484375 -16.03125 Z M 11.484375 -16.03125 "/></g></g></g><g fill="#000000" fill-opacity="1"><g transform="translate(301.355652, 303.302968)"><g><path d="M 2.8125 0 L 2.8125 -23.984375 L 11.078125 -23.984375 L 11.078125 -20.53125 L 11.171875 -20.53125 C 11.234375 -20.65625 11.332031 -20.8125 11.46875 -21 C 11.613281 -21.1875 11.921875 -21.515625 12.390625 -21.984375 C 12.859375 -22.453125 13.359375 -22.867188 13.890625 -23.234375 C 14.421875 -23.609375 15.101562 -23.941406 15.9375 -24.234375 C 16.78125 -24.535156 17.640625 -24.6875 18.515625 -24.6875 C 19.421875 -24.6875 20.3125 -24.5625 21.1875 -24.3125 C 22.0625 -24.0625 22.703125 -23.8125 23.109375 -23.5625 L 23.75 -23.203125 L 20.296875 -16.1875 C 19.265625 -17.050781 17.832031 -17.484375 16 -17.484375 C 15 -17.484375 14.140625 -17.265625 13.421875 -16.828125 C 12.703125 -16.398438 12.191406 -15.875 11.890625 -15.25 C 11.597656 -14.625 11.390625 -14.09375 11.265625 -13.65625 C 11.140625 -13.21875 11.078125 -12.875 11.078125 -12.625 L 11.078125 0 Z M 2.8125 0 "/></g></g></g><g fill="#ff00ff" fill-opacity="1"><g transform="translate(65.618544, 358.802964)"><g><path d="M 1.078125 -19.3125 C 1.078125 -24.894531 2.976562 -29.617188 6.78125 -33.484375 C 10.582031 -37.347656 15.164062 -39.28125 20.53125 -39.28125 C 25.925781 -39.28125 30.507812 -37.351562 34.28125 -33.5 C 38.050781 -29.65625 39.9375 -24.925781 39.9375 -19.3125 C 39.9375 -13.664062 38.082031 -8.914062 34.375 -5.0625 C 30.664062 -1.21875 26.050781 0.703125 20.53125 0.703125 C 14.882812 0.703125 10.226562 -1.203125 6.5625 -5.015625 C 2.90625 -8.835938 1.078125 -13.601562 1.078125 -19.3125 Z M 10.5625 -19.3125 C 10.5625 -17.289062 10.875 -15.441406 11.5 -13.765625 C 12.125 -12.097656 13.210938 -10.6875 14.765625 -9.53125 C 16.328125 -8.382812 18.25 -7.8125 20.53125 -7.8125 C 23.800781 -7.8125 26.269531 -8.929688 27.9375 -11.171875 C 29.601562 -13.421875 30.4375 -16.132812 30.4375 -19.3125 C 30.4375 -22.457031 29.585938 -25.160156 27.890625 -27.421875 C 26.191406 -29.679688 23.738281 -30.8125 20.53125 -30.8125 C 17.351562 -30.8125 14.894531 -29.679688 13.15625 -27.421875 C 11.425781 -25.160156 10.5625 -22.457031 10.5625 -19.3125 Z M 10.5625 -19.3125 "/></g></g></g><g fill="#ff00ff" fill-opacity="1"><g transform="translate(106.635391, 358.802964)"><g><path d="M 2.8125 0 L 2.8125 -23.984375 L 11.078125 -23.984375 L 11.078125 -21.46875 L 11.171875 -21.46875 C 13.328125 -23.613281 15.617188 -24.6875 18.046875 -24.6875 C 19.234375 -24.6875 20.410156 -24.53125 21.578125 -24.21875 C 22.753906 -23.90625 23.878906 -23.421875 24.953125 -22.765625 C 26.023438 -22.117188 26.894531 -21.191406 27.5625 -19.984375 C 28.238281 -18.785156 28.578125 -17.394531 28.578125 -15.8125 L 28.578125 0 L 20.296875 0 L 20.296875 -13.5625 C 20.296875 -14.8125 19.894531 -15.898438 19.09375 -16.828125 C 18.300781 -17.765625 17.269531 -18.234375 16 -18.234375 C 14.75 -18.234375 13.613281 -17.75 12.59375 -16.78125 C 11.582031 -15.820312 11.078125 -14.75 11.078125 -13.5625 L 11.078125 0 Z M 2.8125 0 "/></g></g></g><g fill="#ff00ff" fill-opacity="1"><g transform="translate(137.550024, 358.802964)"><g/></g></g><g fill="#ff00ff" fill-opacity="1"><g transform="translate(150.318093, 358.802964)"><g><path d="M 37.6875 -21.609375 L 37.6875 -13.234375 C 36.695312 -8.648438 34.515625 -5.179688 31.140625 -2.828125 C 27.773438 -0.472656 24.019531 0.703125 19.875 0.703125 C 14.664062 0.703125 10.226562 -1.242188 6.5625 -5.140625 C 2.90625 -9.035156 1.078125 -13.742188 1.078125 -19.265625 C 1.078125 -24.878906 2.867188 -29.617188 6.453125 -33.484375 C 10.035156 -37.347656 14.507812 -39.28125 19.875 -39.28125 C 26.144531 -39.28125 31.101562 -37.082031 34.75 -32.6875 L 29 -26.375 C 26.9375 -29.675781 24.066406 -31.328125 20.390625 -31.328125 C 17.679688 -31.328125 15.363281 -30.148438 13.4375 -27.796875 C 11.519531 -25.441406 10.5625 -22.597656 10.5625 -19.265625 C 10.5625 -15.992188 11.519531 -13.195312 13.4375 -10.875 C 15.363281 -8.550781 17.679688 -7.390625 20.390625 -7.390625 C 22.628906 -7.390625 24.582031 -8.066406 26.25 -9.421875 C 27.925781 -10.773438 28.765625 -12.578125 28.765625 -14.828125 L 19.875 -14.828125 L 19.875 -21.609375 Z M 37.6875 -21.609375 "/></g></g></g><g fill="#ff00ff" fill-opacity="1"><g transform="translate(189.09001, 358.802964)"><g><path d="M 3.59375 -37.359375 C 4.5625 -38.328125 5.71875 -38.8125 7.0625 -38.8125 C 8.40625 -38.8125 9.554688 -38.328125 10.515625 -37.359375 C 11.484375 -36.398438 11.96875 -35.25 11.96875 -33.90625 C 11.96875 -32.5625 11.484375 -31.40625 10.515625 -30.4375 C 9.554688 -29.476562 8.40625 -29 7.0625 -29 C 5.71875 -29 4.5625 -29.476562 3.59375 -30.4375 C 2.632812 -31.40625 2.15625 -32.5625 2.15625 -33.90625 C 2.15625 -35.25 2.632812 -36.398438 3.59375 -37.359375 Z M 2.8125 -23.984375 L 2.8125 0 L 11.078125 0 L 11.078125 -23.984375 Z M 2.8125 -23.984375 "/></g></g></g><g fill="#ff00ff" fill-opacity="1"><g transform="translate(203.214399, 358.802964)"><g><path d="M 4.203125 -23.984375 L 4.203125 -32.921875 L 12.484375 -32.921875 L 12.484375 -23.984375 L 17.53125 -23.984375 L 17.53125 -17.671875 L 12.484375 -17.671875 L 12.484375 -10.046875 C 12.484375 -7.835938 13.109375 -6.734375 14.359375 -6.734375 C 14.671875 -6.734375 15 -6.796875 15.34375 -6.921875 C 15.6875 -7.046875 15.953125 -7.171875 16.140625 -7.296875 L 16.421875 -7.484375 L 18.46875 -0.796875 C 16.695312 0.203125 14.671875 0.703125 12.390625 0.703125 C 10.828125 0.703125 9.484375 0.429688 8.359375 -0.109375 C 7.242188 -0.660156 6.394531 -1.394531 5.8125 -2.3125 C 5.238281 -3.226562 4.828125 -4.191406 4.578125 -5.203125 C 4.328125 -6.222656 4.203125 -7.3125 4.203125 -8.46875 L 4.203125 -17.671875 L 0.75 -17.671875 L 0.75 -23.984375 Z M 4.203125 -23.984375 "/></g></g></g><g fill="#ff00ff" fill-opacity="1"><g transform="translate(221.688355, 358.802964)"><g><path d="M 2.8125 0 L 2.8125 -40.21875 L 11.078125 -40.21875 L 11.078125 -21.46875 L 11.171875 -21.46875 C 13.328125 -23.613281 15.617188 -24.6875 18.046875 -24.6875 C 19.234375 -24.6875 20.410156 -24.53125 21.578125 -24.21875 C 22.753906 -23.90625 23.878906 -23.421875 24.953125 -22.765625 C 26.023438 -22.117188 26.894531 -21.191406 27.5625 -19.984375 C 28.238281 -18.785156 28.578125 -17.394531 28.578125 -15.8125 L 28.578125 0 L 20.296875 0 L 20.296875 -13.5625 C 20.296875 -14.8125 19.894531 -15.898438 19.09375 -16.828125 C 18.300781 -17.765625 17.269531 -18.234375 16 -18.234375 C 14.75 -18.234375 13.613281 -17.75 12.59375 -16.78125 C 11.582031 -15.820312 11.078125 -14.75 11.078125 -13.5625 L 11.078125 0 Z M 2.8125 0 "/></g></g></g><g fill="#ff00ff" fill-opacity="1"><g transform="translate(252.602988, 358.802964)"><g><path d="M 10.609375 -23.984375 L 10.609375 -12.578125 C 10.609375 -10.210938 10.96875 -8.53125 11.6875 -7.53125 C 12.40625 -6.53125 13.617188 -6.03125 15.328125 -6.03125 C 17.046875 -6.03125 18.265625 -6.53125 18.984375 -7.53125 C 19.703125 -8.53125 20.0625 -10.210938 20.0625 -12.578125 L 20.0625 -23.984375 L 28.34375 -23.984375 L 28.34375 -10.5625 C 28.34375 -6.570312 27.304688 -3.695312 25.234375 -1.9375 C 23.160156 -0.175781 19.863281 0.703125 15.34375 0.703125 C 10.820312 0.703125 7.523438 -0.175781 5.453125 -1.9375 C 3.378906 -3.695312 2.34375 -6.570312 2.34375 -10.5625 L 2.34375 -23.984375 Z M 10.609375 -23.984375 "/></g></g></g><g fill="#ff00ff" fill-opacity="1"><g transform="translate(283.283783, 358.802964)"><g><path d="M 27.484375 -20.984375 C 29.734375 -18.523438 30.859375 -15.519531 30.859375 -11.96875 C 30.859375 -8.414062 29.734375 -5.414062 27.484375 -2.96875 C 25.242188 -0.519531 22.394531 0.703125 18.9375 0.703125 C 15.757812 0.703125 13.140625 -0.4375 11.078125 -2.71875 L 10.984375 -2.71875 L 10.984375 0 L 2.8125 0 L 2.8125 -40.21875 L 11.078125 -40.21875 L 11.078125 -21.703125 C 13.140625 -23.691406 15.757812 -24.6875 18.9375 -24.6875 C 22.394531 -24.6875 25.242188 -23.453125 27.484375 -20.984375 Z M 20.53125 -7.921875 C 21.5625 -8.972656 22.078125 -10.320312 22.078125 -11.96875 C 22.078125 -13.625 21.535156 -14.976562 20.453125 -16.03125 C 19.378906 -17.09375 18.050781 -17.625 16.46875 -17.625 C 14.90625 -17.625 13.582031 -17.09375 12.5 -16.03125 C 11.425781 -14.976562 10.890625 -13.625 10.890625 -11.96875 C 10.890625 -10.351562 11.410156 -9.015625 12.453125 -7.953125 C 13.503906 -6.890625 14.84375 -6.359375 16.46875 -6.359375 C 18.144531 -6.359375 19.5 -6.878906 20.53125 -7.921875 Z M 20.53125 -7.921875 "/></g></g></g><g fill="#00ffff" fill-opacity="1"><g transform="translate(59.772082, 358.802964)"><g><path d="M 1.078125 -19.3125 C 1.078125 -24.894531 2.976562 -29.617188 6.78125 -33.484375 C 10.582031 -37.347656 15.164062 -39.28125 20.53125 -39.28125 C 25.925781 -39.28125 30.507812 -37.351562 34.28125 -33.5 C 38.050781 -29.65625 39.9375 -24.925781 39.9375 -19.3125 C 39.9375 -13.664062 38.082031 -8.914062 34.375 -5.0625 C 30.664062 -1.21875 26.050781 0.703125 20.53125 0.703125 C 14.882812 0.703125 10.226562 -1.203125 6.5625 -5.015625 C 2.90625 -8.835938 1.078125 -13.601562 1.078125 -19.3125 Z M 10.5625 -19.3125 C 10.5625 -17.289062 10.875 -15.441406 11.5 -13.765625 C 12.125 -12.097656 13.210938 -10.6875 14.765625 -9.53125 C 16.328125 -8.382812 18.25 -7.8125 20.53125 -7.8125 C 23.800781 -7.8125 26.269531 -8.929688 27.9375 -11.171875 C 29.601562 -13.421875 30.4375 -16.132812 30.4375 -19.3125 C 30.4375 -22.457031 29.585938 -25.160156 27.890625 -27.421875 C 26.191406 -29.679688 23.738281 -30.8125 20.53125 -30.8125 C 17.351562 -30.8125 14.894531 -29.679688 13.15625 -27.421875 C 11.425781 -25.160156 10.5625 -22.457031 10.5625 -19.3125 Z M 10.5625 -19.3125 "/></g></g></g><g fill="#00ffff" fill-opacity="1"><g transform="translate(100.788929, 358.802964)"><g><path d="M 2.8125 0 L 2.8125 -23.984375 L 11.078125 -23.984375 L 11.078125 -21.46875 L 11.171875 -21.46875 C 13.328125 -23.613281 15.617188 -24.6875 18.046875 -24.6875 C 19.234375 -24.6875 20.410156 -24.53125 21.578125 -24.21875 C 22.753906 -23.90625 23.878906 -23.421875 24.953125 -22.765625 C 26.023438 -22.117188 26.894531 -21.191406 27.5625 -19.984375 C 28.238281 -18.785156 28.578125 -17.394531 28.578125 -15.8125 L 28.578125 0 L 20.296875 0 L 20.296875 -13.5625 C 20.296875 -14.8125 19.894531 -15.898438 19.09375 -16.828125 C 18.300781 -17.765625 17.269531 -18.234375 16 -18.234375 C 14.75 -18.234375 13.613281 -17.75 12.59375 -16.78125 C 11.582031 -15.820312 11.078125 -14.75 11.078125 -13.5625 L 11.078125 0 Z M 2.8125 0 "/></g></g></g><g fill="#00ffff" fill-opacity="1"><g transform="translate(131.703562, 358.802964)"><g/></g></g><g fill="#00ffff" fill-opacity="1"><g transform="translate(144.471631, 358.802964)"><g><path d="M 37.6875 -21.609375 L 37.6875 -13.234375 C 36.695312 -8.648438 34.515625 -5.179688 31.140625 -2.828125 C 27.773438 -0.472656 24.019531 0.703125 19.875 0.703125 C 14.664062 0.703125 10.226562 -1.242188 6.5625 -5.140625 C 2.90625 -9.035156 1.078125 -13.742188 1.078125 -19.265625 C 1.078125 -24.878906 2.867188 -29.617188 6.453125 -33.484375 C 10.035156 -37.347656 14.507812 -39.28125 19.875 -39.28125 C 26.144531 -39.28125 31.101562 -37.082031 34.75 -32.6875 L 29 -26.375 C 26.9375 -29.675781 24.066406 -31.328125 20.390625 -31.328125 C 17.679688 -31.328125 15.363281 -30.148438 13.4375 -27.796875 C 11.519531 -25.441406 10.5625 -22.597656 10.5625 -19.265625 C 10.5625 -15.992188 11.519531 -13.195312 13.4375 -10.875 C 15.363281 -8.550781 17.679688 -7.390625 20.390625 -7.390625 C 22.628906 -7.390625 24.582031 -8.066406 26.25 -9.421875 C 27.925781 -10.773438 28.765625 -12.578125 28.765625 -14.828125 L 19.875 -14.828125 L 19.875 -21.609375 Z M 37.6875 -21.609375 "/></g></g></g><g fill="#00ffff" fill-opacity="1"><g transform="translate(183.243548, 358.802964)"><g><path d="M 3.59375 -37.359375 C 4.5625 -38.328125 5.71875 -38.8125 7.0625 -38.8125 C 8.40625 -38.8125 9.554688 -38.328125 10.515625 -37.359375 C 11.484375 -36.398438 11.96875 -35.25 11.96875 -33.90625 C 11.96875 -32.5625 11.484375 -31.40625 10.515625 -30.4375 C 9.554688 -29.476562 8.40625 -29 7.0625 -29 C 5.71875 -29 4.5625 -29.476562 3.59375 -30.4375 C 2.632812 -31.40625 2.15625 -32.5625 2.15625 -33.90625 C 2.15625 -35.25 2.632812 -36.398438 3.59375 -37.359375 Z M 2.8125 -23.984375 L 2.8125 0 L 11.078125 0 L 11.078125 -23.984375 Z M 2.8125 -23.984375 "/></g></g></g><g fill="#00ffff" fill-opacity="1"><g transform="translate(197.367937, 358.802964)"><g><path d="M 4.203125 -23.984375 L 4.203125 -32.921875 L 12.484375 -32.921875 L 12.484375 -23.984375 L 17.53125 -23.984375 L 17.53125 -17.671875 L 12.484375 -17.671875 L 12.484375 -10.046875 C 12.484375 -7.835938 13.109375 -6.734375 14.359375 -6.734375 C 14.671875 -6.734375 15 -6.796875 15.34375 -6.921875 C 15.6875 -7.046875 15.953125 -7.171875 16.140625 -7.296875 L 16.421875 -7.484375 L 18.46875 -0.796875 C 16.695312 0.203125 14.671875 0.703125 12.390625 0.703125 C 10.828125 0.703125 9.484375 0.429688 8.359375 -0.109375 C 7.242188 -0.660156 6.394531 -1.394531 5.8125 -2.3125 C 5.238281 -3.226562 4.828125 -4.191406 4.578125 -5.203125 C 4.328125 -6.222656 4.203125 -7.3125 4.203125 -8.46875 L 4.203125 -17.671875 L 0.75 -17.671875 L 0.75 -23.984375 Z M 4.203125 -23.984375 "/></g></g></g><g fill="#00ffff" fill-opacity="1"><g transform="translate(215.841893, 358.802964)"><g><path d="M 2.8125 0 L 2.8125 -40.21875 L 11.078125 -40.21875 L 11.078125 -21.46875 L 11.171875 -21.46875 C 13.328125 -23.613281 15.617188 -24.6875 18.046875 -24.6875 C 19.234375 -24.6875 20.410156 -24.53125 21.578125 -24.21875 C 22.753906 -23.90625 23.878906 -23.421875 24.953125 -22.765625 C 26.023438 -22.117188 26.894531 -21.191406 27.5625 -19.984375 C 28.238281 -18.785156 28.578125 -17.394531 28.578125 -15.8125 L 28.578125 0 L 20.296875 0 L 20.296875 -13.5625 C 20.296875 -14.8125 19.894531 -15.898438 19.09375 -16.828125 C 18.300781 -17.765625 17.269531 -18.234375 16 -18.234375 C 14.75 -18.234375 13.613281 -17.75 12.59375 -16.78125 C 11.582031 -15.820312 11.078125 -14.75 11.078125 -13.5625 L 11.078125 0 Z M 2.8125 0 "/></g></g></g><g fill="#00ffff" fill-opacity="1"><g transform="translate(246.756526, 358.802964)"><g><path d="M 10.609375 -23.984375 L 10.609375 -12.578125 C 10.609375 -10.210938 10.96875 -8.53125 11.6875 -7.53125 C 12.40625 -6.53125 13.617188 -6.03125 15.328125 -6.03125 C 17.046875 -6.03125 18.265625 -6.53125 18.984375 -7.53125 C 19.703125 -8.53125 20.0625 -10.210938 20.0625 -12.578125 L 20.0625 -23.984375 L 28.34375 -23.984375 L 28.34375 -10.5625 C 28.34375 -6.570312 27.304688 -3.695312 25.234375 -1.9375 C 23.160156 -0.175781 19.863281 0.703125 15.34375 0.703125 C 10.820312 0.703125 7.523438 -0.175781 5.453125 -1.9375 C 3.378906 -3.695312 2.34375 -6.570312 2.34375 -10.5625 L 2.34375 -23.984375 Z M 10.609375 -23.984375 "/></g></g></g><g fill="#00ffff" fill-opacity="1"><g transform="translate(277.437321, 358.802964)"><g><path d="M 27.484375 -20.984375 C 29.734375 -18.523438 30.859375 -15.519531 30.859375 -11.96875 C 30.859375 -8.414062 29.734375 -5.414062 27.484375 -2.96875 C 25.242188 -0.519531 22.394531 0.703125 18.9375 0.703125 C 15.757812 0.703125 13.140625 -0.4375 11.078125 -2.71875 L 10.984375 -2.71875 L 10.984375 0 L 2.8125 0 L 2.8125 -40.21875 L 11.078125 -40.21875 L 11.078125 -21.703125 C 13.140625 -23.691406 15.757812 -24.6875 18.9375 -24.6875 C 22.394531 -24.6875 25.242188 -23.453125 27.484375 -20.984375 Z M 20.53125 -7.921875 C 21.5625 -8.972656 22.078125 -10.320312 22.078125 -11.96875 C 22.078125 -13.625 21.535156 -14.976562 20.453125 -16.03125 C 19.378906 -17.09375 18.050781 -17.625 16.46875 -17.625 C 14.90625 -17.625 13.582031 -17.09375 12.5 -16.03125 C 11.425781 -14.976562 10.890625 -13.625 10.890625 -11.96875 C 10.890625 -10.351562 11.410156 -9.015625 12.453125 -7.953125 C 13.503906 -6.890625 14.84375 -6.359375 16.46875 -6.359375 C 18.144531 -6.359375 19.5 -6.878906 20.53125 -7.921875 Z M 20.53125 -7.921875 "/></g></g></g><g fill="#000000" fill-opacity="1"><g transform="translate(62.695313, 358.802964)"><g><path d="M 1.078125 -19.3125 C 1.078125 -24.894531 2.976562 -29.617188 6.78125 -33.484375 C 10.582031 -37.347656 15.164062 -39.28125 20.53125 -39.28125 C 25.925781 -39.28125 30.507812 -37.351562 34.28125 -33.5 C 38.050781 -29.65625 39.9375 -24.925781 39.9375 -19.3125 C 39.9375 -13.664062 38.082031 -8.914062 34.375 -5.0625 C 30.664062 -1.21875 26.050781 0.703125 20.53125 0.703125 C 14.882812 0.703125 10.226562 -1.203125 6.5625 -5.015625 C 2.90625 -8.835938 1.078125 -13.601562 1.078125 -19.3125 Z M 10.5625 -19.3125 C 10.5625 -17.289062 10.875 -15.441406 11.5 -13.765625 C 12.125 -12.097656 13.210938 -10.6875 14.765625 -9.53125 C 16.328125 -8.382812 18.25 -7.8125 20.53125 -7.8125 C 23.800781 -7.8125 26.269531 -8.929688 27.9375 -11.171875 C 29.601562 -13.421875 30.4375 -16.132812 30.4375 -19.3125 C 30.4375 -22.457031 29.585938 -25.160156 27.890625 -27.421875 C 26.191406 -29.679688 23.738281 -30.8125 20.53125 -30.8125 C 17.351562 -30.8125 14.894531 -29.679688 13.15625 -27.421875 C 11.425781 -25.160156 10.5625 -22.457031 10.5625 -19.3125 Z M 10.5625 -19.3125 "/></g></g></g><g fill="#000000" fill-opacity="1"><g transform="translate(103.71216, 358.802964)"><g><path d="M 2.8125 0 L 2.8125 -23.984375 L 11.078125 -23.984375 L 11.078125 -21.46875 L 11.171875 -21.46875 C 13.328125 -23.613281 15.617188 -24.6875 18.046875 -24.6875 C 19.234375 -24.6875 20.410156 -24.53125 21.578125 -24.21875 C 22.753906 -23.90625 23.878906 -23.421875 24.953125 -22.765625 C 26.023438 -22.117188 26.894531 -21.191406 27.5625 -19.984375 C 28.238281 -18.785156 28.578125 -17.394531 28.578125 -15.8125 L 28.578125 0 L 20.296875 0 L 20.296875 -13.5625 C 20.296875 -14.8125 19.894531 -15.898438 19.09375 -16.828125 C 18.300781 -17.765625 17.269531 -18.234375 16 -18.234375 C 14.75 -18.234375 13.613281 -17.75 12.59375 -16.78125 C 11.582031 -15.820312 11.078125 -14.75 11.078125 -13.5625 L 11.078125 0 Z M 2.8125 0 "/></g></g></g><g fill="#000000" fill-opacity="1"><g transform="translate(134.626793, 358.802964)"><g/></g></g><g fill="#000000" fill-opacity="1"><g transform="translate(147.394862, 358.802964)"><g><path d="M 37.6875 -21.609375 L 37.6875 -13.234375 C 36.695312 -8.648438 34.515625 -5.179688 31.140625 -2.828125 C 27.773438 -0.472656 24.019531 0.703125 19.875 0.703125 C 14.664062 0.703125 10.226562 -1.242188 6.5625 -5.140625 C 2.90625 -9.035156 1.078125 -13.742188 1.078125 -19.265625 C 1.078125 -24.878906 2.867188 -29.617188 6.453125 -33.484375 C 10.035156 -37.347656 14.507812 -39.28125 19.875 -39.28125 C 26.144531 -39.28125 31.101562 -37.082031 34.75 -32.6875 L 29 -26.375 C 26.9375 -29.675781 24.066406 -31.328125 20.390625 -31.328125 C 17.679688 -31.328125 15.363281 -30.148438 13.4375 -27.796875 C 11.519531 -25.441406 10.5625 -22.597656 10.5625 -19.265625 C 10.5625 -15.992188 11.519531 -13.195312 13.4375 -10.875 C 15.363281 -8.550781 17.679688 -7.390625 20.390625 -7.390625 C 22.628906 -7.390625 24.582031 -8.066406 26.25 -9.421875 C 27.925781 -10.773438 28.765625 -12.578125 28.765625 -14.828125 L 19.875 -14.828125 L 19.875 -21.609375 Z M 37.6875 -21.609375 "/></g></g></g><g fill="#000000" fill-opacity="1"><g transform="translate(186.166779, 358.802964)"><g><path d="M 3.59375 -37.359375 C 4.5625 -38.328125 5.71875 -38.8125 7.0625 -38.8125 C 8.40625 -38.8125 9.554688 -38.328125 10.515625 -37.359375 C 11.484375 -36.398438 11.96875 -35.25 11.96875 -33.90625 C 11.96875 -32.5625 11.484375 -31.40625 10.515625 -30.4375 C 9.554688 -29.476562 8.40625 -29 7.0625 -29 C 5.71875 -29 4.5625 -29.476562 3.59375 -30.4375 C 2.632812 -31.40625 2.15625 -32.5625 2.15625 -33.90625 C 2.15625 -35.25 2.632812 -36.398438 3.59375 -37.359375 Z M 2.8125 -23.984375 L 2.8125 0 L 11.078125 0 L 11.078125 -23.984375 Z M 2.8125 -23.984375 "/></g></g></g><g fill="#000000" fill-opacity="1"><g transform="translate(200.291168, 358.802964)"><g><path d="M 4.203125 -23.984375 L 4.203125 -32.921875 L 12.484375 -32.921875 L 12.484375 -23.984375 L 17.53125 -23.984375 L 17.53125 -17.671875 L 12.484375 -17.671875 L 12.484375 -10.046875 C 12.484375 -7.835938 13.109375 -6.734375 14.359375 -6.734375 C 14.671875 -6.734375 15 -6.796875 15.34375 -6.921875 C 15.6875 -7.046875 15.953125 -7.171875 16.140625 -7.296875 L 16.421875 -7.484375 L 18.46875 -0.796875 C 16.695312 0.203125 14.671875 0.703125 12.390625 0.703125 C 10.828125 0.703125 9.484375 0.429688 8.359375 -0.109375 C 7.242188 -0.660156 6.394531 -1.394531 5.8125 -2.3125 C 5.238281 -3.226562 4.828125 -4.191406 4.578125 -5.203125 C 4.328125 -6.222656 4.203125 -7.3125 4.203125 -8.46875 L 4.203125 -17.671875 L 0.75 -17.671875 L 0.75 -23.984375 Z M 4.203125 -23.984375 "/></g></g></g><g fill="#000000" fill-opacity="1"><g transform="translate(218.765124, 358.802964)"><g><path d="M 2.8125 0 L 2.8125 -40.21875 L 11.078125 -40.21875 L 11.078125 -21.46875 L 11.171875 -21.46875 C 13.328125 -23.613281 15.617188 -24.6875 18.046875 -24.6875 C 19.234375 -24.6875 20.410156 -24.53125 21.578125 -24.21875 C 22.753906 -23.90625 23.878906 -23.421875 24.953125 -22.765625 C 26.023438 -22.117188 26.894531 -21.191406 27.5625 -19.984375 C 28.238281 -18.785156 28.578125 -17.394531 28.578125 -15.8125 L 28.578125 0 L 20.296875 0 L 20.296875 -13.5625 C 20.296875 -14.8125 19.894531 -15.898438 19.09375 -16.828125 C 18.300781 -17.765625 17.269531 -18.234375 16 -18.234375 C 14.75 -18.234375 13.613281 -17.75 12.59375 -16.78125 C 11.582031 -15.820312 11.078125 -14.75 11.078125 -13.5625 L 11.078125 0 Z M 2.8125 0 "/></g></g></g><g fill="#000000" fill-opacity="1"><g transform="translate(249.679757, 358.802964)"><g><path d="M 10.609375 -23.984375 L 10.609375 -12.578125 C 10.609375 -10.210938 10.96875 -8.53125 11.6875 -7.53125 C 12.40625 -6.53125 13.617188 -6.03125 15.328125 -6.03125 C 17.046875 -6.03125 18.265625 -6.53125 18.984375 -7.53125 C 19.703125 -8.53125 20.0625 -10.210938 20.0625 -12.578125 L 20.0625 -23.984375 L 28.34375 -23.984375 L 28.34375 -10.5625 C 28.34375 -6.570312 27.304688 -3.695312 25.234375 -1.9375 C 23.160156 -0.175781 19.863281 0.703125 15.34375 0.703125 C 10.820312 0.703125 7.523438 -0.175781 5.453125 -1.9375 C 3.378906 -3.695312 2.34375 -6.570312 2.34375 -10.5625 L 2.34375 -23.984375 Z M 10.609375 -23.984375 "/></g></g></g><g fill="#000000" fill-opacity="1"><g transform="translate(280.360552, 358.802964)"><g><path d="M 27.484375 -20.984375 C 29.734375 -18.523438 30.859375 -15.519531 30.859375 -11.96875 C 30.859375 -8.414062 29.734375 -5.414062 27.484375 -2.96875 C 25.242188 -0.519531 22.394531 0.703125 18.9375 0.703125 C 15.757812 0.703125 13.140625 -0.4375 11.078125 -2.71875 L 10.984375 -2.71875 L 10.984375 0 L 2.8125 0 L 2.8125 -40.21875 L 11.078125 -40.21875 L 11.078125 -21.703125 C 13.140625 -23.691406 15.757812 -24.6875 18.9375 -24.6875 C 22.394531 -24.6875 25.242188 -23.453125 27.484375 -20.984375 Z M 20.53125 -7.921875 C 21.5625 -8.972656 22.078125 -10.320312 22.078125 -11.96875 C 22.078125 -13.625 21.535156 -14.976562 20.453125 -16.03125 C 19.378906 -17.09375 18.050781 -17.625 16.46875 -17.625 C 14.90625 -17.625 13.582031 -17.09375 12.5 -16.03125 C 11.425781 -14.976562 10.890625 -13.625 10.890625 -11.96875 C 10.890625 -10.351562 11.410156 -9.015625 12.453125 -7.953125 C 13.503906 -6.890625 14.84375 -6.359375 16.46875 -6.359375 C 18.144531 -6.359375 19.5 -6.878906 20.53125 -7.921875 Z M 20.53125 -7.921875 "/></g></g></g></svg>